<svg xmlns="http://www.w3.org/2000/svg" width="18" height="18" viewBox="0 0 18 18" fill="none">
  <g clip-path="url(#clip0_79_1307)">
    <path fill-rule="evenodd" clip-rule="evenodd" d="M13.6385 9.24695L10.0614 16.0469C10.0268 16.1129 9.97486 16.1683 9.91115 16.2069C9.84745 16.2455 9.77439 16.266 9.69989 16.2662H9.58805V10.7787C9.94165 10.683 10.2538 10.4733 10.4761 10.1821C10.6983 9.89093 10.8183 9.53454 10.8174 9.16821C10.8174 8.24663 10.0828 7.49684 9.17826 7.49684C8.27457 7.49684 7.5382 8.24663 7.5382 9.16731C7.5382 9.94305 8.06252 10.5917 8.76847 10.7778V16.2662H8.65573C8.58118 16.2662 8.50805 16.2458 8.44431 16.2071C8.38057 16.1685 8.32866 16.1131 8.29426 16.0469L4.7171 9.24695C4.68717 9.19016 4.6705 9.12733 4.66833 9.06317C4.66616 8.99902 4.67855 8.93521 4.70457 8.87652L6.63005 4.57374H11.7256L13.6502 8.87742C13.6763 8.93588 13.6888 8.99951 13.6868 9.06352C13.6848 9.12753 13.6683 9.19025 13.6385 9.24695ZM9.17826 10.003C9.06957 10.0019 8.96215 9.9795 8.86214 9.93693C8.76213 9.89436 8.67149 9.83251 8.59538 9.75491C8.51927 9.67731 8.4592 9.58547 8.41858 9.48465C8.37797 9.38383 8.35761 9.276 8.35868 9.16731C8.35868 8.70742 8.72552 8.33252 9.17826 8.33252C9.6301 8.33252 9.99784 8.70742 9.99784 9.16731C9.99974 9.38675 9.91452 9.59798 9.76087 9.75465C9.60722 9.91132 9.39769 10.0006 9.17826 10.003ZM5.48836 3.52868V2.27605C5.48836 2.16152 5.58052 2.06758 5.69415 2.06758H12.6624C12.7751 2.06758 12.8682 2.16152 12.8682 2.27605V3.52868C12.8684 3.55594 12.8633 3.58298 12.853 3.60826C12.8428 3.63353 12.8277 3.65655 12.8086 3.67599C12.7895 3.69543 12.7668 3.71092 12.7417 3.72157C12.7166 3.73222 12.6896 3.73782 12.6624 3.73805H5.69415C5.66686 3.73794 5.63986 3.73241 5.61471 3.72181C5.58956 3.7112 5.56676 3.69572 5.54763 3.67625C5.52849 3.65679 5.51341 3.63372 5.50323 3.60839C5.49306 3.58307 5.48801 3.55597 5.48836 3.52868ZM14.3964 8.53026L12.6275 4.57284H12.6633C13.2269 4.57284 13.6877 4.10579 13.6877 3.52868V2.27605C13.6877 1.70074 13.2278 1.23279 12.6624 1.23279H5.69415C5.41974 1.23562 5.15765 1.34711 4.96528 1.54283C4.77292 1.73854 4.66598 2.00253 4.66789 2.27695V3.52958C4.66789 4.10668 5.12689 4.57374 5.69326 4.57374H5.72815L3.96015 8.53026C3.80089 8.88279 3.81431 9.29884 3.99415 9.64152L7.5722 16.4415C7.78605 16.8495 8.2021 17.1018 8.65573 17.1018H9.69989C9.92379 17.1012 10.1432 17.0392 10.3344 16.9226C10.5256 16.8061 10.6812 16.6394 10.7843 16.4406L14.3615 9.64152C14.4505 9.47104 14.5 9.28267 14.5062 9.09043C14.5124 8.89819 14.4751 8.70702 14.3973 8.53116L14.3964 8.53026Z" fill="white" stroke="white" stroke-width="0.214737"/>
  </g>
  <defs>
    <clipPath id="clip0_79_1307">
      <rect width="17" height="17" fill="white" transform="translate(0.909912 0.5)"/>
    </clipPath>
  </defs>
</svg>