<svg xmlns="http://www.w3.org/2000/svg" width="18" height="18" viewBox="0 0 18 18" fill="none">
  <g clip-path="url(#clip0_79_1314)">
    <path fill-rule="evenodd" clip-rule="evenodd" d="M4.94647 4.79945V3.80727C4.94647 3.28098 5.15554 2.77625 5.52768 2.40411C5.89982 2.03197 6.40455 1.82291 6.93083 1.82291H10.8996C11.4258 1.82291 11.9306 2.03197 12.3027 2.40411C12.6749 2.77625 12.8839 3.28098 12.8839 3.80727V4.79945H15.8612C16.4091 4.79945 16.8534 5.24377 16.8534 5.79163V14.722C16.8534 15.2707 16.4091 15.7142 15.8612 15.7142H1.96838C1.70524 15.7142 1.45287 15.6097 1.2668 15.4236C1.08073 15.2376 0.976196 14.9852 0.976196 14.722V5.79163C0.976196 5.24377 1.42051 4.79945 1.96838 4.79945H4.94647ZM5.93865 4.79945H11.8917V3.80727C11.8917 3.25863 11.4474 2.81509 10.8996 2.81509H6.93083C6.3822 2.81509 5.93865 3.25941 5.93865 3.80727V4.79945ZM15.8605 5.79163H1.96992V8.76818H4.94647V7.776H5.93865V8.76818H11.8917V7.776H12.8839V8.76818H15.8612L15.8605 5.79163ZM1.96992 9.76113V14.722H15.862V9.76113H12.8847V10.7533H11.8925V9.76113H5.93865V10.7533H4.94647V9.76113H1.96992Z" fill="white"/>
  </g>
  <defs>
    <clipPath id="clip0_79_1314">
      <rect width="17" height="17" fill="white" transform="translate(0.310059 0.5)"/>
    </clipPath>
  </defs>
</svg>