<svg xmlns="http://www.w3.org/2000/svg" width="18" height="18" viewBox="0 0 18 18" fill="none">
  <g clip-path="url(#clip0_79_1342)">
    <path d="M15.4743 5.54389L15.3451 5.57959C14.9141 5.69952 14.4586 5.70044 14.0271 5.58227C13.5955 5.4641 13.2041 5.23124 12.8942 4.90843C12.5844 4.58563 12.3678 4.18493 12.2675 3.7489C12.1671 3.31288 12.1867 2.85781 12.3242 2.43204L12.3659 2.30454L11.1283 1.01254L1.15015 10.5861L2.38775 11.8755L2.51695 11.8398C2.94809 11.7198 3.4037 11.7189 3.83534 11.8371C4.26699 11.9553 4.65854 12.1882 4.96839 12.5112C5.27824 12.8341 5.49481 13.2349 5.59507 13.6711C5.69534 14.1072 5.67557 14.5624 5.53785 14.9882L5.4962 15.1157L6.7338 16.406L16.7119 6.83419L15.4743 5.54389ZM6.00535 14.9959C6.13831 14.508 6.14262 13.9939 6.01784 13.5039C5.89306 13.0138 5.64346 12.5644 5.29335 12.1995C4.94325 11.8346 4.50458 11.5666 4.0201 11.4216C3.53562 11.2767 3.02184 11.2597 2.52885 11.3723L1.7885 10.5988L8.0734 4.56894L8.88515 5.41469L9.2107 5.10274L8.39895 4.25699L11.1147 1.65089L11.8567 2.42439C11.7238 2.9123 11.7195 3.42634 11.8443 3.91641C11.969 4.40647 12.2186 4.85586 12.5687 5.22078C12.9188 5.58569 13.3575 5.85369 13.842 5.99865C14.3265 6.14361 14.8403 6.16059 15.3332 6.04794L16.0744 6.82144L13.3587 9.42669L12.5478 8.58094L12.2222 8.89289L13.0331 9.73864L6.74825 15.7685L6.0062 14.995L6.00535 14.9959Z" fill="white"/>
    <path d="M10.3114 6.28424L9.98584 6.59619L11.0262 7.67994L11.3518 7.36799L10.3114 6.28424Z" fill="white"/>
    <path d="M15.4743 5.54389L15.3451 5.57959C14.9141 5.69952 14.4586 5.70044 14.0271 5.58227C13.5955 5.4641 13.2041 5.23124 12.8942 4.90843C12.5844 4.58563 12.3678 4.18493 12.2675 3.7489C12.1671 3.31288 12.1867 2.85781 12.3242 2.43204L12.3659 2.30454L11.1283 1.01254L1.15015 10.5861L2.38775 11.8755L2.51695 11.8398C2.94809 11.7198 3.4037 11.7189 3.83534 11.8371C4.26699 11.9553 4.65854 12.1882 4.96839 12.5112C5.27824 12.8341 5.49481 13.2349 5.59507 13.6711C5.69534 14.1072 5.67557 14.5624 5.53785 14.9882L5.4962 15.1157L6.7338 16.406L16.7119 6.83419L15.4743 5.54389ZM6.00535 14.9959C6.13831 14.508 6.14262 13.9939 6.01784 13.5039C5.89306 13.0138 5.64346 12.5644 5.29335 12.1995C4.94325 11.8346 4.50458 11.5666 4.0201 11.4216C3.53562 11.2767 3.02184 11.2597 2.52885 11.3723L1.7885 10.5988L8.0734 4.56894L8.88515 5.41469L9.2107 5.10274L8.39895 4.25699L11.1147 1.65089L11.8567 2.42439C11.7238 2.9123 11.7195 3.42634 11.8443 3.91641C11.969 4.40647 12.2186 4.85586 12.5687 5.22078C12.9188 5.58569 13.3575 5.85369 13.842 5.99865C14.3265 6.14361 14.8403 6.16059 15.3332 6.04794L16.0744 6.82144L13.3587 9.42669L12.5478 8.58094L12.2222 8.89289L13.0331 9.73864L6.74825 15.7685L6.0062 14.995L6.00535 14.9959Z" stroke="white" stroke-width="0.50065"/>
    <path d="M10.3114 6.28424L9.98584 6.59619L11.0262 7.67994L11.3518 7.36799L10.3114 6.28424Z" stroke="white" stroke-width="0.50065"/>
  </g>
  <defs>
    <clipPath id="clip0_79_1342">
      <rect width="17" height="17" fill="white" transform="translate(0.300049 0.5)"/>
    </clipPath>
  </defs>
</svg>