<svg xmlns="http://www.w3.org/2000/svg" width="18" height="19" viewBox="0 0 18 19" fill="none">
  <path d="M7.22217 5.52941V3.52941C7.22217 2.99898 7.40947 2.49027 7.74287 2.1152C8.07627 1.74012 8.52845 1.52941 8.99995 1.52941H15.2222C15.6937 1.52941 16.1458 1.74012 16.4792 2.1152C16.8126 2.49027 16.9999 2.99898 16.9999 3.52941V15.5294C16.9999 16.0598 16.8126 16.5686 16.4792 16.9436C16.1458 17.3187 15.6937 17.5294 15.2222 17.5294H8.99995C8.52845 17.5294 8.07627 17.3187 7.74287 16.9436C7.40947 16.5686 7.22217 16.0598 7.22217 15.5294V13.5294" stroke="white" stroke-width="2" stroke-linecap="round" stroke-linejoin="round"/>
  <path d="M11.6667 9.52941H1M1 9.52941L3.66667 6.52941M1 9.52941L3.66667 12.5294" stroke="white" stroke-width="2" stroke-linecap="round" stroke-linejoin="round"/>
</svg>