<?xml version="1.0" encoding="UTF-8"?>
<svg data-bbox="17.49 29 91.51 70" xmlns="http://www.w3.org/2000/svg" viewBox="0 0 120 120" height="120" width="120" data-type="color">
    <g>
        <path fill="#C2E2FF" d="M100.49 91h-83l.99-57h83l-.99 57Z" data-color="1"/>
        <path fill="#116DFF" d="M101.4 35H18.5l.1-6h82.9l-.1 6Z" data-color="2"/>
        <path fill="#28BF9A" d="M92.5 99c9.113 0 16.5-7.387 16.5-16.5S101.613 66 92.5 66 76 73.387 76 82.5 83.387 99 92.5 99Z" data-color="3"/>
        <path fill="#ffffff" d="M22.98 33a.98.98 0 0 1-.98-1c0-.55.47-1 1.02-1s.99.45.98 1c0 .55-.47 1-1.02 1Z" data-color="4"/>
        <path fill="#ffffff" d="M26.98 33a.98.98 0 0 1-.98-1c0-.55.47-1 1.02-1s.99.45.98 1c0 .55-.47 1-1.02 1Z" data-color="4"/>
        <path fill="#ffffff" d="M30.98 33a.98.98 0 0 1-.98-1c0-.55.47-1 1.02-1s.99.45.98 1c0 .55-.47 1-1.02 1Z" data-color="4"/>
        <path fill="#ffffff" d="M83 55H69v1h14v-1Z" data-color="4"/>
        <path fill="#ffffff" d="M94 61H69v1h25v-1Z" data-color="4"/>
        <path fill="#ffffff" d="m34.71 57.68 10.91 11.11 6.32-6.22 7.68 7.82L60 48H25.34l-.33 19.21 9.7-9.53ZM48 52c1.66 0 3 1.34 3 3s-1.34 3-3 3-3-1.34-3-3 1.34-3 3-3Z" data-color="4"/>
        <path fill="#ffffff" d="M24.07 70.77 24 71h.07v-.23Z" data-color="4"/>
        <path fill="#ffffff" d="M86.83 67c-.765.28-1.503.615-2.21 1H69v-1h17.83Z" data-color="4"/>
        <path fill="#ffffff" d="M93 74h-1v17h1V74Z" data-color="4"/>
        <path fill="#ffffff" d="M101 82H84v1h17v-1Z" data-color="4"/>
    </g>
</svg>
