<?xml version="1.0" standalone="no"?>
<!DOCTYPE svg PUBLIC "-//W3C//DTD SVG 20010904//EN"
 "http://www.w3.org/TR/2001/REC-SVG-20010904/DTD/svg10.dtd">
<svg version="1.0" xmlns="http://www.w3.org/2000/svg"
 width="240.000000pt" height="240.000000pt" viewBox="0 0 240.000000 240.000000"
 preserveAspectRatio="xMidYMid meet">

<g transform="translate(0.000000,240.000000) scale(0.100000,-0.100000)"
fill="#000000" stroke="none">
<path d="M1160 2250 l0 -50 560 0 560 0 0 50 0 50 -560 0 -560 0 0 -50z"/>
<path d="M1280 2090 c0 -6 40 -10 100 -10 60 0 100 4 100 10 0 6 -40 10 -100
10 -60 0 -100 -4 -100 -10z"/>
<path d="M1280 1970 c0 -6 67 -10 180 -10 113 0 180 4 180 10 0 6 -67 10 -180
10 -113 0 -180 -4 -180 -10z"/>
<path d="M720 1650 l0 -50 560 0 560 0 0 50 0 50 -560 0 -560 0 0 -50z"/>
<path d="M1212 1261 c-58 -30 -95 -44 -97 -37 -3 6 -9 23 -14 38 l-10 27 -87
-49 c-93 -52 -224 -170 -224 -202 0 -17 18 -18 260 -18 l260 0 0 -80 0 -80
270 0 270 0 0 109 0 109 -119 106 c-66 58 -123 106 -128 106 -4 0 -34 -28 -66
-62 l-57 -62 -73 72 c-40 40 -77 72 -82 72 -6 0 -52 -22 -103 -49z"/>
<path d="M920 810 c0 -6 50 -10 130 -10 80 0 130 4 130 10 0 6 -50 10 -130 10
-80 0 -130 -4 -130 -10z"/>
<path d="M1902 587 c-111 -112 -199 -206 -195 -210 7 -8 413 391 413 405 0 5
-3 8 -8 8 -4 0 -98 -91 -210 -203z"/>
<path d="M700 730 c-19 -45 -65 -80 -106 -80 -30 0 -37 5 -49 34 -8 19 -23 39
-32 45 -14 8 -23 2 -45 -32 l-28 -42 21 -18 c27 -22 16 -36 -13 -18 -19 12
-23 11 -39 -10 -16 -22 -16 -25 -2 -41 20 -22 10 -36 -12 -18 -9 7 -17 11 -19
9 -38 -41 -116 -159 -116 -176 0 -27 10 -53 20 -53 9 0 500 286 511 297 7 8
-60 133 -72 133 -4 0 -12 -14 -19 -30z"/>
<path d="M1000 690 c0 -6 37 -10 90 -10 53 0 90 4 90 10 0 6 -37 10 -90 10
-53 0 -90 -4 -90 -10z"/>
<path d="M1902 387 c-34 -35 -59 -66 -55 -70 7 -8 133 111 133 125 0 18 -19 5
-78 -55z"/>
<path d="M1163 354 c3 -16 16 -82 28 -146 13 -65 26 -118 29 -118 4 0 15 16
26 35 10 19 22 35 26 35 4 0 18 -16 30 -35 24 -36 34 -41 57 -26 12 8 10 16
-12 48 -15 22 -27 42 -27 45 0 3 23 8 50 12 l51 7 -93 61 c-51 33 -110 72
-132 85 l-39 25 6 -28z"/>
</g>
</svg>
