<?xml version="1.0" standalone="no"?>
<!DOCTYPE svg PUBLIC "-//W3C//DTD SVG 20010904//EN"
 "http://www.w3.org/TR/2001/REC-SVG-20010904/DTD/svg10.dtd">
<svg version="1.0" xmlns="http://www.w3.org/2000/svg"
 width="240.000000pt" height="240.000000pt" viewBox="0 0 240.000000 240.000000"
 preserveAspectRatio="xMidYMid meet">

<g transform="translate(0.000000,240.000000) scale(0.100000,-0.100000)"
fill="#000000" stroke="none">
<path d="M847 2091 c3 -22 3 -55 -1 -74 -6 -32 -10 -35 -71 -52 -82 -22 -115
-47 -115 -86 0 -74 94 -53 160 34 32 43 38 47 78 47 50 0 116 -31 133 -62 14
-26 7 -110 -15 -161 l-15 -37 -410 0 -411 0 0 -80 0 -80 366 0 366 0 -17 -27
c-96 -148 -312 -377 -430 -455 -124 -82 -255 -125 -304 -99 -28 16 -28 75 0
142 30 68 16 75 -16 8 -52 -113 -21 -187 75 -176 99 12 254 98 375 208 119
109 270 282 321 369 l18 30 563 0 563 0 0 80 0 80 -515 0 c-283 0 -515 3 -515
6 0 3 7 31 16 61 37 129 -24 213 -154 213 l-33 0 6 44 c7 47 -1 106 -15 106
-4 0 -6 -18 -3 -39z m-26 -148 c-17 -31 -75 -81 -102 -88 -33 -8 -55 15 -40
43 10 20 39 34 101 51 50 13 52 13 41 -6z m-521 -323 c0 -13 -7 -20 -20 -20
-13 0 -20 7 -20 20 0 13 7 20 20 20 13 0 20 -7 20 -20z m80 0 c0 -13 -7 -20
-20 -20 -13 0 -20 7 -20 20 0 13 7 20 20 20 13 0 20 -7 20 -20z m80 0 c0 -13
-7 -20 -20 -20 -13 0 -20 7 -20 20 0 13 7 20 20 20 13 0 20 -7 20 -20z"/>
<path d="M2060 1371 c0 -6 10 -11 23 -11 58 -1 144 -65 166 -123 18 -46 13
-126 -10 -174 -28 -59 -111 -131 -200 -174 -197 -96 -246 -122 -268 -140 -31
-26 -18 -38 17 -16 15 10 88 48 162 86 163 83 246 142 288 206 76 114 48 255
-62 320 -50 29 -116 44 -116 26z"/>
<path d="M900 1310 c0 -6 80 -10 220 -10 140 0 220 4 220 10 0 6 -80 10 -220
10 -140 0 -220 -4 -220 -10z"/>
<path d="M990 1170 c0 -6 50 -10 130 -10 80 0 130 4 130 10 0 6 -50 10 -130
10 -80 0 -130 -4 -130 -10z"/>
<path d="M1131 789 c-76 -84 -93 -107 -82 -113 12 -8 156 153 145 163 -5 5
-33 -18 -63 -50z"/>
<path d="M1125 377 c-348 -231 -350 -232 -350 -267 0 -28 5 -36 26 -44 28 -10
11 -20 479 283 129 84 241 158 248 166 12 10 9 19 -12 54 -15 22 -30 41 -34
41 -4 0 -164 -105 -357 -233z"/>
</g>
</svg>
