<svg xmlns="http://www.w3.org/2000/svg" width="60" height="61" viewBox="0 0 60 61" fill="none">
<path fill-rule="evenodd" clip-rule="evenodd" d="M30 57.5C44.9115 57.5 57 45.4115 57 30.5C57 15.5885 44.9115 3.5 30 3.5C15.0885 3.5 3 15.5885 3 30.5C3 45.4115 15.0885 57.5 30 57.5ZM30 60.5C46.569 60.5 60 47.069 60 30.5C60 13.931 46.569 0.5 30 0.5C13.431 0.5 0 13.931 0 30.5C0 47.069 13.431 60.5 30 60.5Z" fill="black"/>
<path fill-rule="evenodd" clip-rule="evenodd" d="M46.005 18.8885C46.3001 19.1551 46.4772 19.528 46.4975 19.9252C46.5177 20.3223 46.3794 20.7113 46.113 21.0065L26.079 43.148L13.965 31.5845C13.693 31.3065 13.5396 30.9337 13.5371 30.5448C13.5347 30.1559 13.6835 29.7812 13.952 29.4999C14.2205 29.2185 14.5878 29.0524 14.9764 29.0367C15.365 29.021 15.7446 29.1568 16.035 29.4155L25.92 38.8505L43.8885 18.995C44.0207 18.8489 44.1804 18.7303 44.3585 18.6459C44.5366 18.5615 44.7296 18.5131 44.9265 18.5033C45.1233 18.4936 45.3201 18.5227 45.5057 18.5891C45.6913 18.6554 45.8619 18.7577 46.008 18.89" fill="black"/>
</svg>