<svg xmlns="http://www.w3.org/2000/svg" width="18" height="18" viewBox="0 0 18 18" fill="none">
  <path d="M3.35098 6.85899C3.8651 6.85899 4.35816 7.06323 4.7217 7.42677C5.08524 7.79031 5.28948 8.28337 5.28948 8.79749C5.28948 9.31162 5.08524 9.80468 4.7217 10.1682C4.35816 10.5318 3.8651 10.736 3.35098 10.736C2.83685 10.736 2.34379 10.5318 1.98025 10.1682C1.61671 9.80468 1.41248 9.31162 1.41248 8.79749C1.41248 8.28337 1.61671 7.79031 1.98025 7.42677C2.34379 7.06323 2.83685 6.85899 3.35098 6.85899ZM9.16698 6.85899C9.6811 6.85899 10.1742 7.06323 10.5377 7.42677C10.9012 7.79031 11.1055 8.28337 11.1055 8.79749C11.1055 9.31162 10.9012 9.80468 10.5377 10.1682C10.1742 10.5318 9.6811 10.736 9.16698 10.736C8.65285 10.736 8.15979 10.5318 7.79625 10.1682C7.43271 9.80468 7.22848 9.31162 7.22848 8.79749C7.22848 8.28337 7.43271 7.79031 7.79625 7.42677C8.15979 7.06323 8.65285 6.85899 9.16698 6.85899ZM14.982 6.85899C15.4961 6.85899 15.9892 7.06323 16.3527 7.42677C16.7162 7.79031 16.9205 8.28337 16.9205 8.79749C16.9205 9.31162 16.7162 9.80468 16.3527 10.1682C15.9892 10.5318 15.4961 10.736 14.982 10.736C14.4679 10.736 13.9748 10.5318 13.6112 10.1682C13.2477 9.80468 13.0435 9.31162 13.0435 8.79749C13.0435 8.28337 13.2477 7.79031 13.6112 7.42677C13.9748 7.06323 14.4679 6.85899 14.982 6.85899ZM3.35198 7.82899C3.22102 7.82304 3.09022 7.8437 2.96747 7.88971C2.84472 7.93572 2.73257 8.00614 2.6378 8.0967C2.54302 8.18727 2.46759 8.29611 2.41605 8.41664C2.36451 8.53717 2.33794 8.6669 2.33794 8.79799C2.33794 8.92908 2.36451 9.05881 2.41605 9.17935C2.46759 9.29988 2.54302 9.40872 2.6378 9.49928C2.73257 9.58985 2.84472 9.66026 2.96747 9.70628C3.09022 9.75229 3.22102 9.77294 3.35198 9.76699C3.60371 9.75891 3.84244 9.65322 4.01765 9.47229C4.19287 9.29135 4.29083 9.04936 4.29083 8.79749C4.29083 8.54563 4.19287 8.30363 4.01765 8.1227C3.84244 7.94177 3.60371 7.83608 3.35198 7.82799V7.82899ZM9.16698 7.82899C9.03602 7.82304 8.90522 7.8437 8.78247 7.88971C8.65972 7.93572 8.54757 8.00614 8.4528 8.0967C8.35802 8.18727 8.28259 8.29611 8.23105 8.41664C8.17951 8.53717 8.15294 8.6669 8.15294 8.79799C8.15294 8.92908 8.17951 9.05881 8.23105 9.17935C8.28259 9.29988 8.35802 9.40872 8.4528 9.49928C8.54757 9.58985 8.65972 9.66026 8.78247 9.70628C8.90522 9.75229 9.03602 9.77294 9.16698 9.76699C9.41871 9.75891 9.65744 9.65322 9.83265 9.47229C10.0079 9.29135 10.1058 9.04936 10.1058 8.79749C10.1058 8.54563 10.0079 8.30363 9.83265 8.1227C9.65744 7.94177 9.41871 7.83608 9.16698 7.82799V7.82899ZM14.982 7.82899C14.851 7.82304 14.7202 7.8437 14.5975 7.88971C14.4747 7.93572 14.3626 8.00614 14.2678 8.0967C14.173 8.18727 14.0976 8.29611 14.0461 8.41664C13.9945 8.53717 13.9679 8.6669 13.9679 8.79799C13.9679 8.92908 13.9945 9.05881 14.0461 9.17935C14.0976 9.29988 14.173 9.40872 14.2678 9.49928C14.3626 9.58985 14.4747 9.66026 14.5975 9.70628C14.7202 9.75229 14.851 9.77294 14.982 9.76699C15.2337 9.75891 15.4724 9.65322 15.6477 9.47229C15.8229 9.29135 15.9208 9.04936 15.9208 8.79749C15.9208 8.54563 15.8229 8.30363 15.6477 8.1227C15.4724 7.94177 15.2337 7.83608 14.982 7.82799V7.82899Z" fill="white"/>
</svg>