<svg xmlns="http://www.w3.org/2000/svg" width="18" height="18" viewBox="0 0 18 18" fill="none">
  <g clip-path="url(#clip0_79_1299)">
    <path d="M12.1687 10.1997C12.3054 10.1997 12.4408 10.1728 12.5671 10.1205C12.6934 10.0681 12.8082 9.99146 12.9049 9.89479C13.0015 9.79812 13.0782 9.68336 13.1305 9.55705C13.1829 9.43075 13.2098 9.29537 13.2098 9.15866C13.2098 9.02195 13.1829 8.88658 13.1305 8.76027C13.0782 8.63396 13.0015 8.5192 12.9049 8.42253C12.8082 8.32586 12.6934 8.24918 12.5671 8.19686C12.4408 8.14454 12.3054 8.11761 12.1687 8.11761C11.8926 8.11761 11.6278 8.2273 11.4326 8.42253C11.2374 8.61777 11.1277 8.88256 11.1277 9.15866C11.1277 9.43477 11.2374 9.69956 11.4326 9.89479C11.6278 10.09 11.8926 10.1997 12.1687 10.1997Z" fill="white"/>
    <path d="M4.88221 4.99448V3.95343C4.88242 3.40137 5.10188 2.87199 5.49233 2.48169C5.88277 2.0914 6.41224 1.87215 6.9643 1.87215H11.1285C11.6804 1.87236 12.2097 2.09171 12.5999 2.48198C12.9902 2.87225 13.2096 3.40151 13.2098 3.95343V4.99448H16.3329C16.9077 4.99448 17.374 5.46077 17.374 6.03553V15.405C17.374 15.9797 16.9077 16.446 16.3329 16.446H1.75907C1.1843 16.446 0.718018 15.9797 0.718018 15.405V6.03553C0.718018 5.46077 1.1843 4.99448 1.75907 4.99448H4.88221ZM6.9643 2.91319C6.38954 2.91319 5.92326 3.37867 5.92326 3.95343V4.99448H12.1695V3.95343C12.1695 3.37867 11.7033 2.91238 11.1285 2.91238H6.96349L6.9643 2.91319ZM1.75826 6.03553V13.5309L5.36468 9.02267C5.43024 8.94063 5.51275 8.87373 5.60658 8.82656C5.7004 8.77939 5.80331 8.75305 5.90826 8.74936C6.0132 8.74567 6.11771 8.76471 6.21461 8.80518C6.31152 8.84564 6.39853 8.90658 6.46968 8.98381L12.397 15.405H16.3329V6.03553H1.75826ZM1.75826 15.405H10.9787L5.95078 9.95686L1.75826 15.1969V15.405Z" fill="white"/>
  </g>
  <defs>
    <clipPath id="clip0_79_1299">
      <rect width="17" height="17" fill="white" transform="translate(0.560059 0.5)"/>
    </clipPath>
  </defs>
</svg>