<svg xmlns="http://www.w3.org/2000/svg" width="18" height="18" viewBox="0 0 18 18" fill="none">
  <g clip-path="url(#clip0_79_1335)">
    <path d="M7.04279 3.97336V0.768417H8.11111V7.17831C8.11111 7.76794 7.63243 8.24663 7.04279 8.24663V15.7239C7.04279 16.3145 6.56411 16.7923 5.97448 16.7923H4.90616C4.31564 16.7923 3.83785 16.3136 3.83785 15.7239V8.24663C3.24732 8.24663 2.76953 7.76794 2.76953 7.17831V0.768417H3.83785V3.97336H4.90616V0.768417H5.97448V3.97336H7.04279ZM7.04279 5.04168H3.83785V7.17831H4.90616V15.723H5.97448V7.17831H7.04279V5.04168ZM11.3152 11.4587C11.2973 10.8172 11.1586 10.402 10.934 10.1909C10.467 9.75247 10.2477 9.09305 10.2477 8.24663V2.90505C10.2477 2.33853 10.4727 1.79521 10.8732 1.39454C11.2737 0.993868 11.817 0.768655 12.3835 0.768417H13.4518C14.0423 0.768417 14.5201 1.2471 14.5201 1.83673V15.723C14.5201 16.3136 14.0423 16.7923 13.4518 16.7923H12.3835C12.1002 16.792 11.8286 16.6794 11.6283 16.4791C11.428 16.2788 11.3154 16.0072 11.3152 15.7239V11.4578V11.4587ZM12.3835 15.7239H13.4518V1.83763H12.3835C11.7938 1.83763 11.3152 2.31542 11.3152 2.90505V8.24663C11.3152 8.82373 11.4422 9.20221 11.6659 9.41247C12.1321 9.85089 12.3593 10.555 12.3835 11.4587V15.7239Z" fill="white"/>
  </g>
  <defs>
    <clipPath id="clip0_79_1335">
      <rect width="17" height="17" fill="white" transform="translate(0.469971 0.5)"/>
    </clipPath>
  </defs>
</svg>