<svg xmlns="http://www.w3.org/2000/svg" width="25" height="24" viewBox="0 0 25 24" fill="none">
  <path d="M15.45 12C15.1954 12 14.9512 12.1011 14.7712 12.2812C14.5911 12.4612 14.49 12.7054 14.49 12.96C14.49 13.2146 14.5911 13.4588 14.7712 13.6388C14.9512 13.8189 15.1954 13.92 15.45 13.92C15.7046 13.92 15.9488 13.8189 16.1288 13.6388C16.3088 13.4588 16.41 13.2146 16.41 12.96C16.41 12.7054 16.3088 12.4612 16.1288 12.2812C15.9488 12.1011 15.7046 12 15.45 12Z" fill="white"/>
  <path d="M11.6099 12.96C11.6099 12.7054 11.711 12.4612 11.891 12.2812C12.0711 12.1011 12.3153 12 12.5699 12C12.8245 12 13.0687 12.1011 13.2487 12.2812C13.4287 12.4612 13.5299 12.7054 13.5299 12.96C13.5299 13.2146 13.4287 13.4588 13.2487 13.6388C13.0687 13.8189 12.8245 13.92 12.5699 13.92C12.3153 13.92 12.0711 13.8189 11.891 13.6388C11.711 13.4588 11.6099 13.2146 11.6099 12.96Z" fill="white"/>
  <path d="M9.68998 14.88C9.43537 14.88 9.19119 14.9811 9.01116 15.1612C8.83112 15.3412 8.72998 15.5854 8.72998 15.84C8.72998 16.0946 8.83112 16.3388 9.01116 16.5188C9.19119 16.6989 9.43537 16.8 9.68998 16.8C9.94459 16.8 10.1888 16.6989 10.3688 16.5188C10.5488 16.3388 10.65 16.0946 10.65 15.84C10.65 15.5854 10.5488 15.3412 10.3688 15.1612C10.1888 14.9811 9.94459 14.88 9.68998 14.88Z" fill="white"/>
  <path d="M14.49 15.84C14.49 15.7139 14.5148 15.5891 14.5631 15.4726C14.6113 15.3562 14.682 15.2503 14.7712 15.1612C14.8603 15.072 14.9661 15.0013 15.0826 14.9531C15.1991 14.9048 15.3239 14.88 15.45 14.88C15.5761 14.88 15.7009 14.9048 15.8174 14.9531C15.9338 15.0013 16.0397 15.072 16.1288 15.1612C16.218 15.2503 16.2887 15.3562 16.3369 15.4726C16.3852 15.5891 16.41 15.7139 16.41 15.84C16.41 16.0946 16.3088 16.3388 16.1288 16.5188C15.9488 16.6989 15.7046 16.8 15.45 16.8C15.1954 16.8 14.9512 16.6989 14.7712 16.5188C14.5911 16.3388 14.49 16.0946 14.49 15.84Z" fill="white"/>
  <path d="M12.5699 14.88C12.3153 14.88 12.0711 14.9811 11.891 15.1612C11.711 15.3412 11.6099 15.5854 11.6099 15.84C11.6099 16.0946 11.711 16.3388 11.891 16.5188C12.0711 16.6989 12.3153 16.8 12.5699 16.8C12.8245 16.8 13.0687 16.6989 13.2487 16.5188C13.4287 16.3388 13.5299 16.0946 13.5299 15.84C13.5299 15.5854 13.4287 15.3412 13.2487 15.1612C13.0687 14.9811 12.8245 14.88 12.5699 14.88Z" fill="white"/>
  <path d="M19.2899 5.28001H17.3699V4.32001H16.4099V5.28001H8.72989V4.32001H7.76989V5.28001H5.84989C5.59528 5.28001 5.3511 5.38115 5.17107 5.56119C4.99103 5.74122 4.88989 5.9854 4.88989 6.24001V18.72C4.88989 18.9746 4.99103 19.2188 5.17107 19.3988C5.3511 19.5789 5.59528 19.68 5.84989 19.68H19.2899C19.5445 19.68 19.7887 19.5789 19.9687 19.3988C20.1488 19.2188 20.2499 18.9746 20.2499 18.72V6.24001C20.2499 5.9854 20.1488 5.74122 19.9687 5.56119C19.7887 5.38115 19.5445 5.28001 19.2899 5.28001ZM17.3699 6.24001H19.2899V9.12001H5.84989V6.24001H7.76989V7.20001H8.72989V6.24001H16.4099V7.20001H17.3699V6.24001ZM5.84989 10.08H19.2899V18.72H5.84989V10.08Z" fill="white"/>
</svg>