<svg xmlns="http://www.w3.org/2000/svg" width="20" height="20" viewBox="0 0 20 20" fill="none">
  <g clip-path="url(#clip0_79_1292)">
    <path fill-rule="evenodd" clip-rule="evenodd" d="M3.05289 2.40173H17.8824C18.0062 2.40175 18.1259 2.44608 18.2198 2.52672C18.3138 2.60735 18.3757 2.71895 18.3945 2.84132L19.2513 7.58355C19.2624 8.18407 19.0603 8.76911 18.6808 9.23464C18.3013 9.70018 17.769 10.016 17.1785 10.1261V15.8745C17.1785 16.4242 16.9602 16.9514 16.5714 17.3401C16.1827 17.7288 15.6555 17.9472 15.1058 17.9472H5.77853C5.22881 17.9472 4.7016 17.7288 4.31289 17.3401C3.92418 16.9514 3.7058 16.4242 3.7058 15.8745V10.1226C3.11968 10.005 2.59259 9.68753 2.21455 9.22443C1.83652 8.76133 1.63099 8.18135 1.63307 7.58355C1.63307 7.53519 2.55371 2.78173 2.55371 2.78173C2.58392 2.67253 2.6491 2.57624 2.73926 2.50761C2.82941 2.43897 2.93958 2.40179 3.05289 2.40173ZM3.06844 8.7391C3.21844 8.88851 3.40032 9.00202 3.60045 9.07112C3.80057 9.14022 4.01375 9.16312 4.22398 9.1381C5.35189 9.1381 6.29671 7.58355 6.29671 7.58355C6.42213 8.03397 6.69263 8.43044 7.06628 8.71149C7.43993 8.99255 7.89586 9.1425 8.36339 9.1381C8.83176 9.14011 9.28803 8.98947 9.66312 8.70897C10.0382 8.42847 10.3117 8.03339 10.4422 7.58355C10.6153 8.00551 10.8994 8.37278 11.2643 8.64645C11.6292 8.92012 12.0613 9.09 12.5149 9.1381C12.9685 9.09 13.4006 8.92012 13.7655 8.64645C14.1304 8.37278 14.4144 8.00551 14.5876 7.58355C14.5876 7.58355 15.624 9.1381 16.6603 9.1381C16.8685 9.15387 17.0776 9.12448 17.2734 9.05194C17.4692 8.97939 17.647 8.86541 17.7946 8.71778C17.9422 8.57016 18.0562 8.39238 18.1287 8.19662C18.2013 8.00085 18.2307 7.79173 18.2149 7.58355L17.4376 3.4381H3.44671L2.66944 7.58355C2.61762 8.00932 2.76444 8.43596 3.06844 8.7391ZM14.0694 14.8381H6.81489V9.71673C6.61752 9.54743 6.4433 9.35288 6.29671 9.1381C5.91423 9.64286 5.36208 9.99225 4.74216 10.1218V15.8745C4.74216 16.1493 4.85135 16.4129 5.04571 16.6073C5.24006 16.8016 5.50367 16.9108 5.77853 16.9108H15.1058C15.3807 16.9108 15.6443 16.8016 15.8386 16.6073C16.033 16.4129 16.1422 16.1493 16.1422 15.8745V10.114C15.5268 9.97808 14.9775 9.63323 14.5876 9.1381C14.4434 9.3566 14.2698 9.55264 14.0694 9.72192V14.8381ZM10.4422 9.1381C10.1584 9.54087 9.75748 9.84648 9.29391 10.0134C8.83034 10.1802 8.32663 10.2003 7.85125 10.0708V13.8017H13.0331V10.0708C12.5577 10.2013 12.0537 10.1818 11.5899 10.0148C11.1261 9.84784 10.7252 9.54164 10.4422 9.1381Z" fill="white"/>
  </g>
  <defs>
    <clipPath id="clip0_79_1292">
      <rect width="19" height="19" fill="white" transform="translate(0.810059 0.5)"/>
    </clipPath>
  </defs>
</svg>